{
    "asset" : {
        "generator" : "Khronos glTF Blender I/O v1.4.40",
        "version" : "2.0"
    },
    "scene" : 0,
    "scenes" : [
        {
            "name" : "Scene",
            "nodes" : [
                0,
                1,
                2,
                3,
                4,
                5
            ]
        }
    ],
    "nodes" : [
        {
            "mesh" : 0,
            "name" : "Cube",
            "rotation" : [
                0.5,
                -0.5,
                -0.4999999701976776,
                0.5
            ],
            "scale" : [
                150.25466918945312,
                31.942691802978516,
                206.1968536376953
            ],
            "translation" : [
                28.342472076416016,
                37.958465576171875,
                -46.0892448425293
            ]
        },
        {
            "name" : "Light",
            "rotation" : [
                0.8840374946594238,
                0.14401419460773468,
                0.04091859981417656,
                0.44279035925865173
            ],
            "scale" : [
                2.3160643577575684,
                2.3160645961761475,
                2.3160648345947266
            ],
            "translation" : [
                32.55185317993164,
                37.411476135253906,
                -24.16277313232422
            ]
        },
        {
            "name" : "Camera",
            "rotation" : [
                0.9047970771789551,
                -0.35922184586524963,
                -0.0843893438577652,
                0.21255728602409363
            ],
            "scale" : [
                2.3160643577575684,
                2.3160643577575684,
                2.3160645961761475
            ],
            "translation" : [
                14.182587623596191,
                29.80864715576172,
                210.8715362548828
            ]
        },
        {
            "mesh" : 1,
            "name" : "Text",
            "rotation" : [
                0.7070729732513428,
                0.006913237273693085,
                0.006913237739354372,
                0.7070729732513428
            ],
            "scale" : [
                18.99077033996582,
                6.000776290893555,
                21.868024826049805
            ],
            "translation" : [
                -153.32545471191406,
                -39.48119354248047,
                -12.293903350830078
            ]
        },
        {
            "mesh" : 2,
            "name" : "Text.001",
            "rotation" : [
                0.011272843927145004,
                0.7071384191513062,
                -0.7069794535636902,
                -0.0028737697284668684
            ],
            "scale" : [
                25.985729217529297,
                8.211071968078613,
                29.922779083251953
            ],
            "translation" : [
                217.65460205078125,
                -5.300060272216797,
                -83.06961059570312
            ]
        },
        {
            "mesh" : 3,
            "name" : "Cube.001",
            "scale" : [
                188.83428955078125,
                85.79154205322266,
                7.624543190002441
            ],
            "translation" : [
                29.34931182861328,
                38.29866027832031,
                -77.95966339111328
            ]
        }
    ],
    "materials" : [
        {
            "doubleSided" : true,
            "name" : "Material",
            "pbrMetallicRoughness" : {
                "baseColorFactor" : [
                    0.0025725560262799263,
                    0.03389657661318779,
                    0.8000000715255737,
                    1
                ],
                "metallicFactor" : 0,
                "roughnessFactor" : 0.4000000059604645
            }
        },
        {
            "doubleSided" : true,
            "name" : "Material.001",
            "pbrMetallicRoughness" : {
                "baseColorFactor" : [
                    0.800000011920929,
                    0.800000011920929,
                    0.800000011920929,
                    1
                ],
                "metallicFactor" : 0,
                "roughnessFactor" : 0.5
            }
        },
        {
            "doubleSided" : true,
            "name" : "Material.002",
            "pbrMetallicRoughness" : {
                "baseColorFactor" : [
                    0.800000011920929,
                    0.800000011920929,
                    0.800000011920929,
                    1
                ],
                "metallicFactor" : 0,
                "roughnessFactor" : 0.5
            }
        },
        {
            "doubleSided" : true,
            "name" : "Material.003",
            "pbrMetallicRoughness" : {
                "baseColorFactor" : [
                    0.8000000715255737,
                    0.004183996468782425,
                    0,
                    1
                ],
                "metallicFactor" : 0,
                "roughnessFactor" : 0.9680851101875305
            }
        }
    ],
    "meshes" : [
        {
            "name" : "Cube",
            "primitives" : [
                {
                    "attributes" : {
                        "POSITION" : 0,
                        "NORMAL" : 1,
                        "TEXCOORD_0" : 2
                    },
                    "indices" : 3,
                    "material" : 0
                }
            ]
        },
        {
            "name" : "Text",
            "primitives" : [
                {
                    "attributes" : {
                        "POSITION" : 4,
                        "NORMAL" : 5,
                        "TEXCOORD_0" : 6
                    },
                    "indices" : 7,
                    "material" : 1
                }
            ]
        },
        {
            "name" : "Text.001",
            "primitives" : [
                {
                    "attributes" : {
                        "POSITION" : 8,
                        "NORMAL" : 9,
                        "TEXCOORD_0" : 10
                    },
                    "indices" : 11,
                    "material" : 2
                }
            ]
        },
        {
            "name" : "Cube.001",
            "primitives" : [
                {
                    "attributes" : {
                        "POSITION" : 12,
                        "NORMAL" : 13,
                        "TEXCOORD_0" : 14
                    },
                    "indices" : 15,
                    "material" : 3
                }
            ]
        }
    ],
    "accessors" : [
        {
            "bufferView" : 0,
            "componentType" : 5126,
            "count" : 4056,
            "max" : [
                1,
                1,
                1
            ],
            "min" : [
                -1,
                -1,
                -1
            ],
            "type" : "VEC3"
        },
        {
            "bufferView" : 1,
            "componentType" : 5126,
            "count" : 4056,
            "type" : "VEC3"
        },
        {
            "bufferView" : 2,
            "componentType" : 5126,
            "count" : 4056,
            "type" : "VEC2"
        },
        {
            "bufferView" : 3,
            "componentType" : 5123,
            "count" : 6084,
            "type" : "SCALAR"
        },
        {
            "bufferView" : 4,
            "componentType" : 5126,
            "count" : 2112,
            "max" : [
                19.389999389648438,
                2.2899999618530273,
                0.09000000357627869
            ],
            "min" : [
                0.40000003576278687,
                -2.2899999618530273,
                -6.910000324249268
            ],
            "type" : "VEC3"
        },
        {
            "bufferView" : 5,
            "componentType" : 5126,
            "count" : 2112,
            "type" : "VEC3"
        },
        {
            "bufferView" : 6,
            "componentType" : 5126,
            "count" : 2112,
            "type" : "VEC2"
        },
        {
            "bufferView" : 7,
            "componentType" : 5123,
            "count" : 3816,
            "type" : "SCALAR"
        },
        {
            "bufferView" : 8,
            "componentType" : 5126,
            "count" : 2467,
            "max" : [
                10.02606201171875,
                2.2899999618530273,
                0.03267000615596771
            ],
            "min" : [
                3.299670934677124,
                -2.2899999618530273,
                -2.475660562515259
            ],
            "type" : "VEC3"
        },
        {
            "bufferView" : 9,
            "componentType" : 5126,
            "count" : 2467,
            "type" : "VEC3"
        },
        {
            "bufferView" : 10,
            "componentType" : 5126,
            "count" : 2467,
            "type" : "VEC2"
        },
        {
            "bufferView" : 11,
            "componentType" : 5123,
            "count" : 4632,
            "type" : "SCALAR"
        },
        {
            "bufferView" : 12,
            "componentType" : 5126,
            "count" : 384,
            "max" : [
                1,
                1,
                1
            ],
            "min" : [
                -1,
                -1,
                -1
            ],
            "type" : "VEC3"
        },
        {
            "bufferView" : 13,
            "componentType" : 5126,
            "count" : 384,
            "type" : "VEC3"
        },
        {
            "bufferView" : 14,
            "componentType" : 5126,
            "count" : 384,
            "type" : "VEC2"
        },
        {
            "bufferView" : 15,
            "componentType" : 5123,
            "count" : 564,
            "type" : "SCALAR"
        }
    ],
    "bufferViews" : [
        {
            "buffer" : 0,
            "byteLength" : 48672,
            "byteOffset" : 0
        },
        {
            "buffer" : 0,
            "byteLength" : 48672,
            "byteOffset" : 48672
        },
        {
            "buffer" : 0,
            "byteLength" : 32448,
            "byteOffset" : 97344
        },
        {
            "buffer" : 0,
            "byteLength" : 12168,
            "byteOffset" : 129792
        },
        {
            "buffer" : 0,
            "byteLength" : 25344,
            "byteOffset" : 141960
        },
        {
            "buffer" : 0,
            "byteLength" : 25344,
            "byteOffset" : 167304
        },
        {
            "buffer" : 0,
            "byteLength" : 16896,
            "byteOffset" : 192648
        },
        {
            "buffer" : 0,
            "byteLength" : 7632,
            "byteOffset" : 209544
        },
        {
            "buffer" : 0,
            "byteLength" : 29604,
            "byteOffset" : 217176
        },
        {
            "buffer" : 0,
            "byteLength" : 29604,
            "byteOffset" : 246780
        },
        {
            "buffer" : 0,
            "byteLength" : 19736,
            "byteOffset" : 276384
        },
        {
            "buffer" : 0,
            "byteLength" : 9264,
            "byteOffset" : 296120
        },
        {
            "buffer" : 0,
            "byteLength" : 4608,
            "byteOffset" : 305384
        },
        {
            "buffer" : 0,
            "byteLength" : 4608,
            "byteOffset" : 309992
        },
        {
            "buffer" : 0,
            "byteLength" : 3072,
            "byteOffset" : 314600
        },
        {
            "buffer" : 0,
            "byteLength" : 1128,
            "byteOffset" : 317672
        }
    ],
    "buffers" : [
        {
            "byteLength" : 318800,
            "uri" : "data:application/octet-stream;base64,"
        }
    ]
}
