{
    "asset" : {
        "generator" : "Khronos glTF Blender I/O v1.4.40",
        "version" : "2.0"
    },
    "scene" : 0,
    "scenes" : [
        {
            "name" : "Scene",
            "nodes" : [
                0,
                1,
                2,
                3
            ]
        }
    ],
    "nodes" : [
        {
            "mesh" : 0,
            "name" : "Cube",
            "rotation" : [
                0.5,
                -0.5,
                -0.4999999701976776,
                0.5
            ],
            "scale" : [
                64.875,
                7.876692771911621,
                89.02898406982422
            ],
            "translation" : [
                28.67484474182129,
                39.173240661621094,
                -10.49838924407959
            ]
        },
        {
            "name" : "Light",
            "rotation" : [
                0.8840374946594238,
                0.14401419460773468,
                0.04091859981417656,
                0.44279035925865173
            ],
            "translation" : [
                29.680295944213867,
                35.09699630737305,
                -4.5945281982421875
            ]
        },
        {
            "name" : "Camera",
            "rotation" : [
                0.9047970771789551,
                -0.35922184586524963,
                -0.0843893438577652,
                0.21255728602409363
            ],
            "translation" : [
                21.749053955078125,
                31.814346313476562,
                96.88551330566406
            ]
        },
        {
            "mesh" : 1,
            "name" : "Text",
            "rotation" : [
                0.7070729732513428,
                0.006913237273693085,
                0.006913237739354372,
                0.7070729732513428
            ],
            "scale" : [
                7.6271748542785645,
                2.5909366607666016,
                7.6271748542785645
            ],
            "translation" : [
                -43.43912887573242,
                13.943302154541016,
                -3.7582740783691406
            ]
        }
    ],
    "materials" : [
        {
            "doubleSided" : true,
            "name" : "Material",
            "pbrMetallicRoughness" : {}
        },
        {
            "doubleSided" : true,
            "name" : "Material.001",
            "pbrMetallicRoughness" : {
                "baseColorFactor" : [
                    0.800000011920929,
                    0.800000011920929,
                    0.800000011920929,
                    1
                ],
                "metallicFactor" : 0,
                "roughnessFactor" : 0.5
            }
        }
    ],
    "meshes" : [
        {
            "name" : "Cube",
            "primitives" : [
                {
                    "attributes" : {
                        "POSITION" : 0,
                        "NORMAL" : 1,
                        "TEXCOORD_0" : 2
                    },
                    "indices" : 3,
                    "material" : 0
                }
            ]
        },
        {
            "name" : "Text",
            "primitives" : [
                {
                    "attributes" : {
                        "POSITION" : 4,
                        "NORMAL" : 5,
                        "TEXCOORD_0" : 6
                    },
                    "indices" : 7,
                    "material" : 1
                }
            ]
        }
    ],
    "accessors" : [
        {
            "bufferView" : 0,
            "componentType" : 5126,
            "count" : 24,
            "max" : [
                1,
                1,
                1
            ],
            "min" : [
                -1,
                -1,
                -1
            ],
            "type" : "VEC3"
        },
        {
            "bufferView" : 1,
            "componentType" : 5126,
            "count" : 24,
            "type" : "VEC3"
        },
        {
            "bufferView" : 2,
            "componentType" : 5126,
            "count" : 24,
            "type" : "VEC2"
        },
        {
            "bufferView" : 3,
            "componentType" : 5123,
            "count" : 36,
            "type" : "SCALAR"
        },
        {
            "bufferView" : 4,
            "componentType" : 5126,
            "count" : 2112,
            "max" : [
                19.389999389648438,
                2.2899999618530273,
                0.09000000357627869
            ],
            "min" : [
                0.40000003576278687,
                -2.2899999618530273,
                -6.910000324249268
            ],
            "type" : "VEC3"
        },
        {
            "bufferView" : 5,
            "componentType" : 5126,
            "count" : 2112,
            "type" : "VEC3"
        },
        {
            "bufferView" : 6,
            "componentType" : 5126,
            "count" : 2112,
            "type" : "VEC2"
        },
        {
            "bufferView" : 7,
            "componentType" : 5123,
            "count" : 3816,
            "type" : "SCALAR"
        }
    ],
    "bufferViews" : [
        {
            "buffer" : 0,
            "byteLength" : 288,
            "byteOffset" : 0
        },
        {
            "buffer" : 0,
            "byteLength" : 288,
            "byteOffset" : 288
        },
        {
            "buffer" : 0,
            "byteLength" : 192,
            "byteOffset" : 576
        },
        {
            "buffer" : 0,
            "byteLength" : 72,
            "byteOffset" : 768
        },
        {
            "buffer" : 0,
            "byteLength" : 25344,
            "byteOffset" : 840
        },
        {
            "buffer" : 0,
            "byteLength" : 25344,
            "byteOffset" : 26184
        },
        {
            "buffer" : 0,
            "byteLength" : 16896,
            "byteOffset" : 51528
        },
        {
            "buffer" : 0,
            "byteLength" : 7632,
            "byteOffset" : 68424
        }
    ],
    "buffers" : [
        {
            "byteLength" : 76056,
            "uri" : "data:application/octet-stream;base64,"
        }
    ]
}
